<!DOCTYPE svg PUBLIC "-//W3C//DTD SVG 1.1//EN" "http://www.w3.org/Graphics/SVG/1.1/DTD/svg11.dtd">
<!-- Uploaded to: SVG Repo, www.svgrepo.com, Transformed by: SVG Repo Mixer Tools -->
<svg fill="#f6cf5d" height="800px" width="800px" version="1.1" id="Layer_1" xmlns="http://www.w3.org/2000/svg" xmlns:xlink="http://www.w3.org/1999/xlink" viewBox="0 0 512 512" xml:space="preserve">
<g id="SVGRepo_bgCarrier" stroke-width="0"/>
<g id="SVGRepo_tracerCarrier" stroke-linecap="round" stroke-linejoin="round"/>
<g id="SVGRepo_iconCarrier"> <g> <g> <g> <path d="M448,42.667H64c-35.355,0-64,28.645-64,64v298.667c0,35.355,28.645,64,64,64h384c35.355,0,64-28.645,64-64V106.667 C512,71.311,483.355,42.667,448,42.667z M469.333,405.333c0,11.791-9.542,21.333-21.333,21.333H64 c-11.791,0-21.333-9.542-21.333-21.333V106.667c0-11.791,9.542-21.333,21.333-21.333h384c11.791,0,21.333,9.542,21.333,21.333 V405.333z"/> <path d="M277.333,320c0-29.349-17.768-54.322-44.541-69.531C247.172,235.196,256,214.636,256,192 c0-47.131-38.202-85.333-85.333-85.333S85.333,144.869,85.333,192c0,22.636,8.828,43.196,23.208,58.469 C81.768,265.678,64,290.651,64,320c0,11.782,9.551,21.333,21.333,21.333H256C267.782,341.333,277.333,331.782,277.333,320z M128,192c0-23.567,19.099-42.667,42.667-42.667s42.667,19.099,42.667,42.667s-19.099,42.667-42.667,42.667S128,215.567,128,192z M115.582,298.667c10.961-12.39,31.091-21.333,55.085-21.333s44.124,8.944,55.085,21.333H115.582z"/> <path d="M320,170.667h64c11.782,0,21.333-9.551,21.333-21.333c0-11.782-9.551-21.333-21.333-21.333h-64 c-11.782,0-21.333,9.551-21.333,21.333C298.667,161.115,308.218,170.667,320,170.667z"/> <path d="M426.667,192H320c-11.782,0-21.333,9.551-21.333,21.333c0,11.782,9.551,21.333,21.333,21.333h106.667 c11.782,0,21.333-9.551,21.333-21.333C448,201.551,438.449,192,426.667,192z"/> <path d="M362.667,362.667H149.333C137.551,362.667,128,372.218,128,384s9.551,21.333,21.333,21.333h213.333 c11.782,0,21.333-9.551,21.333-21.333S374.449,362.667,362.667,362.667z"/> <path d="M426.667,256H320c-11.782,0-21.333,9.551-21.333,21.333c0,11.782,9.551,21.333,21.333,21.333h106.667 c11.782,0,21.333-9.551,21.333-21.333C448,265.551,438.449,256,426.667,256z"/> </g> </g> </g> </g>
</svg>