<!DOCTYPE svg PUBLIC "-//W3C//DTD SVG 1.1//EN" "http://www.w3.org/Graphics/SVG/1.1/DTD/svg11.dtd">
<!-- Uploaded to: SVG Repo, www.svgrepo.com, Transformed by: SVG Repo Mixer Tools -->
<svg fill="#f6cf5d" height="800px" width="800px" version="1.1" id="Capa_1" xmlns="http://www.w3.org/2000/svg" xmlns:xlink="http://www.w3.org/1999/xlink" viewBox="0 0 427.969 427.969" xml:space="preserve">
<g id="SVGRepo_bgCarrier" stroke-width="0"/>
<g id="SVGRepo_tracerCarrier" stroke-linecap="round" stroke-linejoin="round"/>
<g id="SVGRepo_iconCarrier"> <g> <path d="M151.026,0c-27.109,0-49.164,22.055-49.164,49.164v328.23c0,27.109,22.055,49.164,49.164,49.164 s49.165-22.055,49.165-49.164V49.164C200.191,22.055,178.136,0,151.026,0z M151.027,160.178c15.049,0,27.249,12.2,27.249,27.249 v4.792h-54.498v-4.792C123.778,172.378,135.978,160.178,151.027,160.178z M151.027,268.502c-15.049,0-27.249-12.2-27.249-27.249 v-6.913h54.498v6.913C178.276,256.302,166.076,268.502,151.027,268.502z"/> <path d="M276.942,0c-27.109,0-49.165,22.055-49.165,49.164v328.23c0,27.109,22.056,49.164,49.165,49.164 s49.164-22.055,49.164-49.164V49.164C326.106,22.055,304.052,0,276.942,0z M276.942,160.178c15.049,0,27.249,12.2,27.249,27.249 v4.792h-54.498v-4.792C249.693,172.378,261.893,160.178,276.942,160.178z M276.942,268.502c-15.049,0-27.249-12.2-27.249-27.249 v-6.913h54.498v6.913C304.191,256.302,291.991,268.502,276.942,268.502z"/> <path d="M65.111,367.433h-10V135.465c7.951-5.004,13.249-13.853,13.249-23.92V36.839c0-15.576-12.673-28.249-28.249-28.249 S11.863,21.263,11.863,36.839v74.706c0,10.068,5.298,18.917,13.248,23.92v231.968h-10c-8.284,0-15,6.716-15,15s6.716,15,15,15h10 v15.536c0,8.284,6.716,15,15,15s15-6.716,15-15v-15.536h10c8.284,0,15-6.716,15-15S73.396,367.433,65.111,367.433z"/> <path d="M412.857,367.433h-10V135.465c7.95-5.004,13.248-13.853,13.248-23.92V36.839c0-15.576-12.672-28.249-28.248-28.249 s-28.249,12.673-28.249,28.249v74.706c0,10.068,5.298,18.917,13.249,23.92v231.967h-10c-8.284,0-15,6.716-15,15s6.716,15,15,15h10 v15.536c0,8.284,6.716,15,15,15s15-6.716,15-15v-15.536h10c8.284,0,15-6.716,15-15S421.142,367.433,412.857,367.433z"/> </g> </g>
</svg>